<?xml version="1.0" standalone="no"?>
<!DOCTYPE svg PUBLIC "-//W3C//DTD SVG 20010904//EN"
 "http://www.w3.org/TR/2001/REC-SVG-20010904/DTD/svg10.dtd">
<svg version="1.0" xmlns="http://www.w3.org/2000/svg"
 width="1200.000000pt" height="367.000000pt" viewBox="0 0 1200.000000 367.000000"
 preserveAspectRatio="xMidYMid meet">

<g transform="translate(0.000000,367.000000) scale(0.100000,-0.100000)"
fill="#000000" stroke="none">
<path d="M7992 3589 c-12 -5 -35 -29 -50 -54 -33 -57 -78 -122 -115 -168 -22
-27 -31 -54 -41 -124 -14 -96 -33 -139 -95 -222 -46 -61 -71 -122 -95 -231 -9
-41 -26 -109 -38 -150 -11 -41 -25 -94 -30 -116 -5 -23 -24 -59 -42 -80 -95
-114 -123 -208 -136 -469 -5 -107 -15 -198 -23 -225 l-15 -45 -1 41 c-1 22 -6
45 -12 51 -17 17 -40 255 -37 380 3 107 2 112 -22 138 -21 22 -25 36 -25 88 0
47 -6 71 -23 99 -22 35 -23 44 -16 130 l6 93 -37 45 c-37 44 -37 45 -31 112 3
37 24 121 46 188 22 67 40 134 40 149 0 32 -27 61 -58 61 -42 0 -152 -168
-152 -232 0 -38 -15 -73 -51 -117 -16 -21 -38 -65 -48 -97 -18 -58 -18 -59
-25 -27 -9 39 -43 54 -62 28 -11 -15 -13 -12 -16 21 -2 31 -7 40 -24 42 -44 6
-89 -94 -104 -226 -9 -83 -48 -241 -105 -422 -28 -90 -29 -143 -9 -395 9 -114
-7 -180 -62 -257 -72 -101 -84 -132 -84 -222 0 -60 6 -98 26 -155 23 -67 25
-84 19 -146 -5 -38 -8 -97 -7 -130 1 -33 3 -130 5 -215 3 -162 10 -193 47
-205 41 -13 64 23 96 150 12 50 32 117 44 150 23 63 23 104 -2 225 -15 77 7
144 73 216 55 60 53 53 50 184 -2 58 3 121 12 160 9 36 21 110 27 165 6 55 18
127 26 160 18 77 18 123 -1 212 -11 54 -12 84 -5 125 17 88 52 197 68 210 13
12 15 2 9 -80 -6 -104 0 -132 43 -177 15 -16 31 -41 35 -55 4 -14 25 -41 45
-60 31 -28 39 -45 45 -85 13 -98 27 -157 51 -211 13 -30 28 -84 33 -119 5 -35
13 -70 17 -77 4 -6 6 -51 5 -98 -2 -100 8 -121 74 -143 39 -13 40 -15 49 -73
14 -95 25 -132 49 -158 31 -35 60 -40 88 -17 22 18 24 29 30 133 5 102 9 121
41 193 32 72 37 92 43 198 l7 118 49 65 c74 101 92 159 84 270 -5 68 -2 114
11 185 l18 94 6 -66 c6 -61 10 -71 53 -120 26 -30 47 -62 47 -72 0 -11 -17
-72 -37 -136 -43 -136 -47 -225 -13 -331 16 -49 20 -87 19 -169 -2 -142 19
-213 94 -318 l30 -42 -17 -81 c-9 -44 -16 -90 -16 -101 0 -31 27 -77 50 -84
16 -5 20 -15 20 -56 0 -71 21 -112 74 -149 l47 -31 -3 -70 c-2 -54 2 -73 15
-86 14 -14 21 -15 36 -6 16 10 22 8 35 -12 19 -28 47 -32 66 -10 11 13 11 29
2 79 -7 35 -12 77 -12 94 0 17 -19 65 -41 108 -41 77 -41 79 -34 149 15 129
13 146 -25 198 -33 46 -34 50 -31 131 2 70 -2 92 -23 139 -39 89 -41 110 -12
172 38 84 51 163 36 224 -9 38 -9 63 -1 101 17 77 14 118 -11 153 -19 26 -22
46 -25 144 -2 92 -8 130 -29 191 -21 62 -28 106 -34 222 -6 107 -15 171 -35
245 -24 90 -26 111 -21 210 7 133 17 171 90 347 55 135 65 182 46 217 -13 24
-30 30 -58 20z m36 -56 c2 -12 -26 -93 -62 -180 -72 -179 -85 -235 -87 -378
-2 -80 4 -121 25 -205 20 -78 29 -140 33 -240 5 -105 11 -148 28 -195 17 -45
24 -93 30 -190 6 -116 9 -134 32 -167 20 -29 24 -43 17 -65 -4 -15 -8 -93 -9
-173 -2 -134 -4 -149 -28 -203 -35 -74 -34 -113 3 -197 27 -62 29 -74 24 -146
-6 -79 -6 -79 30 -129 40 -56 43 -76 24 -185 l-12 -69 42 -81 c34 -64 45 -99
53 -162 6 -45 12 -85 15 -90 3 -4 1 -8 -5 -8 -5 0 -12 14 -16 31 -9 41 -33 49
-57 19 l-20 -24 7 71 7 70 -38 29 c-81 62 -84 67 -84 139 0 63 -1 67 -30 83
-17 9 -33 28 -37 41 -5 21 5 106 22 181 5 19 -5 42 -40 94 -65 99 -85 172 -85
311 0 77 -5 126 -16 156 -27 76 -30 176 -6 244 47 142 63 203 57 227 -4 14
-26 48 -51 76 l-44 50 0 79 c0 55 -5 85 -15 99 -15 19 -15 19 -35 -4 -41 -49
-77 -249 -60 -335 14 -70 -5 -150 -50 -212 -79 -109 -83 -120 -91 -244 -6
-104 -10 -124 -43 -196 -32 -71 -36 -89 -36 -161 0 -115 -7 -146 -34 -142 -29
4 -55 61 -62 139 -8 80 -23 105 -74 119 -21 6 -43 16 -47 23 -4 6 -8 53 -9
102 -1 107 -22 217 -57 300 -14 33 -28 78 -32 100 -26 164 -26 164 -66 199
-22 18 -39 40 -39 49 0 9 -19 37 -41 64 l-42 47 6 91 c6 100 0 133 -26 149
-28 18 -56 -23 -88 -129 -40 -135 -44 -185 -24 -283 16 -79 16 -86 -4 -184
-11 -57 -23 -130 -26 -163 -4 -33 -15 -106 -26 -163 -14 -77 -17 -124 -13
-185 l7 -83 -49 -56 c-64 -72 -89 -140 -80 -216 19 -173 19 -207 -2 -255 -11
-25 -28 -81 -38 -124 -43 -197 -83 -170 -71 49 4 79 2 122 -8 156 -11 35 -12
57 -4 91 18 80 14 171 -12 247 -17 49 -24 90 -23 144 0 81 6 96 64 175 55 73
69 105 81 190 10 62 8 98 -6 205 -20 152 -16 194 30 340 50 156 95 343 95 394
0 45 24 132 41 151 5 5 8 -7 7 -31 -2 -71 23 -79 62 -20 l18 28 7 -30 c16 -76
58 -63 85 27 11 37 35 85 54 109 24 29 39 62 46 100 14 69 38 123 79 180 31
42 55 53 64 29 2 -7 -6 -48 -20 -92 -13 -44 -33 -109 -44 -145 -10 -36 -19
-94 -19 -132 0 -61 3 -71 30 -101 29 -34 30 -37 30 -138 0 -87 3 -109 20 -134
15 -23 20 -47 20 -101 0 -65 2 -73 25 -88 25 -16 25 -18 25 -152 0 -162 16
-317 37 -357 9 -18 13 -42 9 -59 -7 -33 8 -68 28 -68 49 0 74 98 86 335 11
232 34 316 108 406 31 38 55 79 62 108 7 25 20 75 31 111 10 36 28 108 39 160
27 116 46 163 99 232 56 74 79 132 93 228 11 76 15 87 58 139 26 31 57 76 70
101 39 79 71 100 78 53z"/>
<path d="M788 3331 c-15 -5 -66 -39 -114 -76 -47 -36 -104 -76 -126 -87 -37
-20 -44 -20 -109 -8 -66 13 -73 12 -115 -8 -24 -12 -64 -40 -89 -63 -37 -34
-49 -40 -71 -35 -40 10 -62 -2 -74 -40 -18 -53 -5 -98 45 -155 52 -57 54 -76
29 -199 -21 -104 -11 -137 66 -226 33 -38 62 -82 66 -99 3 -17 -1 -60 -10 -95
-15 -67 -12 -100 18 -195 7 -22 11 -64 9 -95 -5 -52 -3 -58 37 -110 38 -50 41
-59 36 -99 -5 -34 2 -69 29 -152 39 -120 44 -196 20 -264 -20 -56 -20 -58 25
-132 43 -72 50 -119 25 -163 -23 -40 -19 -147 6 -195 12 -22 28 -57 35 -78 7
-21 23 -52 35 -68 18 -25 21 -44 20 -121 l0 -90 39 -36 c39 -34 40 -37 40
-100 0 -70 18 -113 55 -130 17 -8 28 -7 44 4 18 13 21 25 21 95 0 76 2 82 35
126 45 59 51 83 30 124 -33 63 -36 90 -18 161 19 74 17 82 -49 190 -23 37 -23
37 -5 85 40 104 42 117 23 181 -15 50 -16 65 -6 96 10 32 8 43 -15 103 -21 51
-25 73 -18 93 10 29 50 40 59 15 4 -9 27 -32 52 -51 38 -29 53 -34 97 -34 59
0 74 -12 139 -115 25 -40 37 -51 62 -53 19 -2 36 3 44 12 17 21 26 20 64 -9
18 -14 45 -25 59 -25 31 0 48 -23 82 -107 13 -32 34 -66 47 -76 22 -16 27 -17
67 -2 24 8 47 15 50 15 4 0 26 -38 49 -84 44 -87 66 -109 123 -123 27 -7 41
-22 74 -78 25 -43 58 -82 85 -103 112 -83 110 -80 110 -123 0 -47 13 -74 88
-188 45 -68 64 -87 99 -103 32 -14 52 -33 78 -73 36 -57 61 -69 85 -40 8 10
10 34 5 77 -14 139 -64 255 -149 347 -46 49 -55 66 -61 110 -9 67 -40 111 -96
138 -48 23 -81 56 -111 112 -14 26 -60 63 -91 74 -5 1 -19 35 -32 74 -28 86
-38 102 -94 145 -28 23 -53 57 -79 107 -49 98 -93 135 -161 133 -45 -1 -50 1
-61 29 -19 44 -57 71 -82 58 -23 -13 -20 -15 -48 41 -38 77 -58 99 -95 106
-43 8 -44 23 -2 49 17 11 41 36 54 55 35 54 38 57 83 64 23 4 55 13 71 22 38
19 86 104 100 177 6 31 16 57 20 57 21 0 49 66 49 114 0 41 7 59 38 104 l37
54 0 112 c1 61 5 130 9 153 11 54 3 85 -34 127 -29 32 -30 36 -28 127 1 105
-7 128 -60 161 -25 15 -42 19 -70 14 -86 -15 -86 -15 -93 31 -3 23 -14 52 -25
64 -16 18 -26 20 -67 15 -41 -6 -56 -3 -90 17 -23 14 -91 50 -152 82 -95 50
-119 58 -175 61 -36 2 -77 0 -92 -5z m254 -89 c62 -32 129 -68 148 -80 26 -16
51 -22 97 -22 l62 0 7 -47 c3 -27 11 -54 16 -60 13 -16 55 -17 96 -2 24 8 37
7 61 -5 45 -24 52 -45 50 -152 -1 -94 -1 -96 30 -128 35 -36 34 -28 25 -221
-7 -143 -10 -155 -59 -223 -19 -27 -24 -45 -23 -88 1 -47 -2 -58 -26 -83 -18
-19 -32 -50 -42 -94 -9 -38 -28 -83 -44 -106 -26 -35 -37 -41 -90 -52 -48 -9
-65 -18 -83 -41 -27 -37 -76 -86 -113 -114 l-28 -21 22 -31 c16 -21 32 -32 55
-34 33 -3 41 -14 110 -138 17 -31 18 -32 42 -16 23 15 25 15 40 -9 50 -83 42
-77 94 -70 42 6 51 3 80 -21 18 -15 50 -61 71 -103 29 -58 49 -84 79 -104 44
-29 59 -53 86 -137 20 -62 44 -93 84 -110 16 -6 38 -30 51 -53 33 -60 49 -76
102 -103 58 -29 88 -67 88 -110 0 -50 12 -73 75 -144 62 -68 105 -152 123
-235 18 -83 23 -135 13 -135 -5 0 -21 20 -36 45 -18 31 -40 52 -73 69 -38 20
-59 41 -111 120 -54 81 -65 104 -70 153 -6 53 -9 59 -51 90 -98 72 -122 97
-150 153 -33 66 -37 69 -100 90 -41 14 -48 21 -85 91 -63 120 -60 118 -166 93
-25 -5 -28 -2 -43 44 -9 27 -30 70 -46 96 -24 37 -35 46 -58 46 -17 0 -45 12
-67 30 -45 36 -54 37 -89 9 -33 -26 -43 -19 -85 55 -16 29 -44 65 -61 80 -28
23 -38 26 -79 20 -45 -6 -48 -5 -109 50 -35 31 -67 56 -72 56 -4 0 -22 -12
-39 -26 -38 -32 -41 -73 -9 -146 19 -45 20 -55 9 -98 -11 -42 -10 -53 4 -81
23 -43 21 -98 -4 -155 -29 -65 -26 -101 12 -166 47 -77 48 -82 32 -135 -20
-66 -19 -112 5 -158 28 -55 25 -75 -17 -125 -37 -43 -38 -46 -38 -124 0 -52
-4 -81 -12 -83 -21 -7 -43 53 -43 118 0 58 -2 64 -37 96 l-37 35 -1 94 c-2 79
-5 98 -22 117 -11 12 -26 39 -33 60 -7 21 -23 57 -36 80 -30 53 -32 123 -4
177 11 22 20 48 20 59 0 30 -33 110 -63 154 -25 37 -25 39 -10 80 26 70 21
168 -16 275 -21 64 -31 112 -31 154 0 51 -4 66 -29 97 -46 59 -52 77 -45 129
4 35 2 57 -10 80 -18 35 -23 139 -11 224 10 76 4 96 -59 170 -29 35 -58 73
-65 85 -15 29 -13 95 4 168 20 85 11 124 -41 179 -38 39 -44 50 -44 88 0 61 9
71 48 56 31 -12 34 -11 79 34 69 67 124 92 171 78 53 -14 108 -12 143 6 17 8
76 49 131 90 l99 74 70 0 c64 0 76 -4 181 -58z"/>
<path d="M714 2839 c-66 -49 -69 -50 -133 -48 -56 2 -66 -1 -83 -20 -25 -32
-24 -108 2 -141 16 -20 20 -41 20 -107 0 -65 4 -87 18 -101 41 -42 51 -69 49
-136 -2 -63 -1 -66 33 -95 34 -28 35 -31 33 -91 -2 -57 0 -65 27 -90 l29 -27
-20 -54 c-16 -41 -18 -58 -10 -76 13 -29 44 -30 78 -3 33 26 45 25 81 -5 40
-34 62 -32 103 11 41 43 90 70 156 84 79 18 101 50 118 173 4 29 16 58 31 75
78 88 84 98 84 152 0 37 -6 61 -21 82 l-22 30 22 28 c11 16 21 34 21 39 0 6
-25 38 -56 73 -50 56 -55 65 -49 96 4 24 0 42 -15 67 -24 39 -51 51 -80 35
-42 -22 -73 -9 -102 45 l-27 49 -110 3 -110 2 -67 -50z m220 11 c50 -1 51 -2
72 -43 29 -59 60 -75 113 -57 56 18 72 4 70 -61 -2 -44 2 -52 42 -96 24 -26
47 -49 51 -51 13 -6 9 -39 -7 -52 -21 -17 -19 -49 5 -85 29 -44 26 -95 -7
-133 -81 -90 -87 -101 -97 -184 -9 -70 -33 -103 -83 -113 -61 -11 -115 -39
-161 -84 l-43 -42 -33 26 c-40 30 -70 32 -113 5 l-33 -20 0 23 c1 12 7 33 15
47 23 39 19 77 -10 96 -22 15 -25 23 -25 81 0 62 -1 66 -41 105 -25 24 -38 46
-35 55 3 8 9 31 12 52 5 32 1 43 -36 91 l-42 55 5 72 c5 64 3 75 -19 104 -24
33 -31 82 -15 108 6 9 20 11 50 6 61 -10 94 1 163 56 59 47 66 49 107 44 24
-3 67 -5 95 -5z"/>
<path d="M10687 2838 c-16 -8 -17 -23 -11 -145 7 -135 7 -136 -17 -154 -21
-16 -24 -25 -23 -86 1 -37 8 -151 16 -253 12 -145 20 -196 38 -235 13 -30 25
-86 30 -138 9 -93 25 -127 62 -127 16 0 18 -5 12 -37 -3 -21 -22 -86 -40 -144
-23 -72 -34 -125 -34 -166 l0 -61 -52 -20 c-29 -11 -71 -26 -93 -33 -92 -27
-124 -62 -90 -99 16 -17 14 -20 -42 -58 -71 -48 -133 -115 -133 -143 0 -11 7
-33 16 -50 8 -16 12 -39 9 -49 -3 -11 -46 -57 -96 -102 -49 -45 -89 -88 -89
-95 0 -7 -19 -27 -42 -43 -24 -17 -59 -54 -78 -82 -27 -40 -55 -64 -124 -105
-101 -61 -251 -191 -273 -239 -31 -64 12 -113 70 -82 14 7 65 48 112 91 96 86
106 91 215 114 41 8 88 22 105 31 55 28 288 272 327 342 20 36 66 99 101 141
40 48 67 90 71 111 8 42 50 86 141 148 117 79 174 128 194 169 29 57 103 116
181 146 82 32 149 88 187 157 24 44 39 57 108 95 44 24 94 57 110 73 17 15 56
43 87 62 74 43 267 216 274 245 7 27 -11 53 -37 53 -10 0 -35 -9 -56 -19 -21
-11 -59 -29 -84 -40 -25 -10 -69 -40 -98 -65 -28 -25 -68 -54 -89 -65 -20 -10
-55 -33 -76 -50 -22 -17 -51 -34 -65 -37 -14 -4 -55 -19 -91 -34 -36 -16 -90
-36 -122 -44 -43 -13 -61 -23 -77 -48 l-21 -33 6 42 c8 55 1 82 -36 128 -16
21 -30 47 -30 59 0 11 -7 30 -15 40 -11 14 -15 47 -15 115 0 141 -13 208 -49
245 -29 31 -101 200 -101 238 0 30 -59 194 -96 269 -35 70 -50 83 -77 67z m48
-88 c34 -67 80 -196 88 -247 12 -73 76 -226 110 -261 l32 -33 5 -147 c4 -118
8 -152 23 -172 9 -13 17 -34 17 -46 0 -13 11 -36 25 -52 49 -59 50 -91 0 -204
-11 -28 20 -33 54 -9 16 12 39 37 51 56 18 28 32 38 78 50 31 9 80 26 107 39
28 13 65 27 83 31 18 4 53 22 77 40 24 19 63 44 86 55 23 12 63 41 88 65 25
23 82 59 125 79 129 59 128 49 -4 -70 -52 -47 -122 -102 -155 -121 -33 -20
-77 -51 -97 -69 -21 -18 -61 -45 -90 -60 -82 -41 -108 -63 -128 -108 -26 -61
-94 -118 -180 -151 -58 -22 -86 -41 -130 -84 -30 -31 -64 -72 -75 -91 -13 -22
-61 -64 -127 -110 -137 -96 -175 -133 -196 -194 -9 -28 -37 -72 -63 -100 -47
-52 -129 -172 -129 -188 0 -14 -240 -256 -277 -279 -17 -11 -69 -28 -115 -38
-108 -23 -131 -36 -236 -131 -54 -49 -96 -80 -109 -80 -13 0 -23 2 -23 5 0 42
157 189 271 255 89 51 112 71 143 124 14 23 42 51 64 64 23 12 44 33 48 45 4
12 51 65 105 117 102 99 110 114 84 160 -8 14 -14 34 -15 45 0 26 54 78 138
134 34 23 62 48 62 55 0 8 -10 20 -22 29 -13 8 -20 18 -17 22 4 3 54 22 110
41 134 46 142 53 136 124 -4 44 3 77 30 165 19 61 37 134 40 162 5 46 3 53
-13 59 -45 14 -49 20 -56 101 -5 47 -19 108 -35 149 -22 59 -28 92 -35 224 -5
85 -11 189 -14 232 -5 72 -4 77 16 83 21 7 22 11 18 146 -1 76 -2 139 -1 139
2 0 14 -22 28 -50z"/>
<path d="M1849 2801 c-31 -32 -35 -57 -18 -106 10 -27 8 -38 -15 -83 -14 -28
-26 -67 -26 -85 0 -36 32 -87 54 -87 7 0 25 -13 41 -30 38 -40 77 -40 116 -1
21 22 29 39 29 66 0 21 7 67 16 104 20 82 10 118 -36 127 -27 6 -30 10 -30 45
0 78 -75 106 -131 50z m86 -17 c11 -11 14 -25 10 -45 -11 -49 2 -69 42 -69
l36 0 -8 -52 c-4 -29 -10 -78 -14 -109 -4 -31 -13 -64 -20 -73 -17 -21 -70
-21 -78 -1 -3 9 -19 23 -35 31 -51 27 -56 54 -19 132 30 67 31 70 16 106 -17
40 -10 66 23 85 23 14 28 14 47 -5z"/>
<path d="M3330 2765 c-16 -17 -27 -22 -34 -15 -5 5 -22 10 -38 10 -43 0 -50
-24 -42 -168 7 -144 -5 -232 -56 -398 -17 -53 -30 -112 -30 -130 0 -18 -14
-68 -31 -111 -34 -85 -41 -142 -20 -167 25 -30 60 -19 106 32 24 26 46 44 49
41 4 -4 0 -24 -8 -45 -8 -22 -17 -68 -20 -104 -4 -36 -16 -89 -28 -118 -21
-51 -21 -54 -4 -82 19 -33 18 -47 -15 -230 -10 -58 -26 -125 -34 -150 -29 -80
-30 -133 -5 -185 46 -95 72 -72 148 130 16 44 40 136 51 205 28 162 28 160 57
160 13 0 33 9 44 20 27 27 34 25 48 -14 7 -19 23 -41 35 -49 29 -19 83 -128
92 -187 9 -57 19 -76 62 -121 20 -21 45 -66 62 -112 16 -43 44 -100 62 -128
32 -51 50 -106 73 -232 12 -65 25 -86 53 -87 21 0 53 38 53 64 0 19 4 22 25
18 69 -13 70 55 6 243 -22 66 -45 152 -52 190 -24 149 -31 174 -60 220 -17 27
-35 73 -41 106 -10 57 -44 109 -72 109 -6 0 -27 5 -47 10 -30 8 -48 26 -97 93
-32 45 -69 100 -81 122 -12 22 -29 52 -39 67 -21 34 -5 73 35 89 73 28 159 76
187 104 18 17 39 55 49 87 21 68 47 103 97 128 54 27 98 67 129 116 14 23 56
67 94 99 72 62 81 85 43 110 -21 14 -28 14 -65 1 -71 -24 -149 -77 -262 -178
-64 -59 -117 -98 -129 -98 -28 0 -55 -15 -110 -60 -47 -38 -146 -91 -155 -82
-10 11 -4 71 11 107 10 26 14 55 11 89 -7 63 -23 162 -31 197 -5 16 0 45 14
80 27 66 29 168 6 205 -22 32 -65 32 -96 -1z m68 -17 c19 -19 14 -99 -11 -177
-18 -55 -22 -81 -16 -109 4 -20 13 -62 20 -92 17 -78 15 -150 -4 -187 -13 -24
-15 -46 -10 -93 3 -33 10 -63 15 -66 5 -3 24 6 42 19 18 14 48 32 67 40 19 8
59 35 89 61 36 31 67 48 93 53 31 5 62 26 150 105 113 102 227 178 265 178 12
0 22 -3 22 -6 0 -4 -29 -33 -64 -65 -35 -33 -75 -78 -89 -102 -17 -28 -45 -54
-83 -77 -85 -51 -107 -77 -138 -158 -20 -51 -37 -80 -59 -96 -41 -31 -132 -76
-152 -76 -9 0 -30 -13 -46 -29 -37 -37 -39 -90 -6 -135 12 -17 28 -44 35 -59
14 -32 128 -186 152 -204 8 -6 32 -15 54 -18 51 -9 72 -33 80 -91 4 -27 23
-77 42 -111 26 -47 39 -88 54 -179 11 -65 38 -170 60 -233 41 -120 52 -183 35
-190 -5 -2 -19 12 -30 32 -30 56 -49 49 -42 -15 8 -62 0 -98 -19 -98 -10 0
-14 13 -14 40 0 21 -6 59 -14 82 -8 24 -17 59 -21 78 -4 19 -24 65 -46 101
-21 36 -48 93 -60 127 -13 40 -36 79 -64 110 -35 39 -47 62 -59 115 -19 83
-68 181 -100 202 -13 9 -27 27 -30 40 -7 28 -32 55 -52 55 -8 0 -24 -11 -35
-24 -17 -19 -28 -24 -50 -19 -36 7 -39 -1 -69 -172 -21 -120 -53 -225 -102
-334 l-19 -44 -21 41 -21 41 22 78 c28 97 71 325 71 376 0 20 -6 46 -12 57
-10 16 -10 26 0 52 18 45 43 160 38 174 -3 7 2 35 11 64 11 40 13 58 4 76 -16
36 -34 30 -89 -32 -28 -31 -55 -53 -61 -49 -18 11 -12 56 15 120 15 33 30 89
35 125 5 35 18 91 29 125 54 161 72 319 55 476 -8 75 1 89 39 64 23 -16 26
-15 58 14 38 35 40 35 56 19z"/>
<path d="M10166 2648 c-42 -39 -135 -232 -146 -307 -6 -36 -20 -90 -30 -119
-11 -29 -20 -75 -20 -103 0 -27 -8 -64 -17 -82 -9 -18 -18 -60 -19 -99 -1 -37
-5 -72 -9 -78 -3 -5 -23 -10 -43 -10 -21 0 -48 -9 -62 -20 -14 -11 -39 -20
-56 -20 -55 0 -84 -59 -46 -93 10 -10 32 -17 48 -17 16 0 58 -14 92 -30 35
-17 70 -30 78 -30 18 0 17 -18 -1 -50 -8 -14 -14 -42 -15 -62 0 -21 -8 -53
-17 -73 -16 -33 -16 -38 1 -91 15 -48 16 -62 5 -105 -10 -39 -10 -59 -1 -94
17 -62 15 -158 -4 -251 -29 -139 -6 -274 46 -274 24 0 25 1 61 117 23 74 34
137 45 256 11 120 19 168 35 199 17 33 20 55 18 117 -2 46 2 91 10 115 9 25
12 65 9 113 -6 88 4 98 56 58 29 -22 46 -27 113 -29 56 -2 89 -9 118 -25 51
-27 120 -29 134 -2 6 10 7 21 4 25 -4 3 8 19 27 34 27 23 32 33 27 54 -8 31
-46 58 -95 65 -20 3 -50 16 -65 29 -31 26 -84 39 -125 31 -22 -5 -30 -1 -37
16 -9 20 -18 22 -82 23 -40 0 -75 3 -78 6 -3 3 8 45 24 94 16 49 35 118 41
154 7 36 21 89 31 118 26 74 24 114 -6 150 -14 17 -25 37 -25 47 0 9 18 47 41
85 48 80 60 138 34 163 -23 24 -69 21 -99 -5z m79 -47 c-3 -14 -24 -57 -46
-96 -54 -93 -57 -114 -25 -152 30 -36 34 -82 11 -136 -8 -19 -19 -65 -25 -103
-6 -38 -25 -109 -42 -159 -49 -146 -43 -159 65 -150 l67 6 0 -31 c0 -39 16
-45 64 -25 43 18 91 8 121 -25 10 -11 29 -20 42 -20 37 0 93 -27 93 -45 0 -9
-13 -22 -30 -28 -23 -9 -30 -17 -30 -39 0 -37 -21 -36 -92 1 -48 26 -62 29
-114 24 -51 -4 -64 -2 -94 19 -53 36 -70 40 -97 23 -22 -15 -23 -21 -21 -108
1 -59 -3 -100 -11 -116 -9 -17 -11 -44 -7 -91 6 -58 3 -77 -18 -131 -18 -48
-27 -100 -36 -204 -8 -91 -20 -167 -36 -218 -13 -43 -24 -87 -24 -98 0 -26
-16 -24 -24 4 -11 43 -6 180 10 241 16 60 15 129 -2 245 -4 26 -1 59 6 81 11
32 10 45 -5 83 -11 30 -15 58 -11 79 4 18 10 53 15 78 4 25 15 59 24 77 32 61
17 106 -32 97 -17 -4 -41 3 -71 20 -25 15 -61 26 -81 26 -42 0 -65 20 -47 38
7 7 25 12 42 12 16 0 37 7 47 16 10 9 39 19 64 22 60 6 75 28 75 110 0 38 6
75 16 94 8 16 19 64 24 107 4 42 15 92 23 111 8 19 17 60 21 91 4 40 22 87 62
165 60 119 83 145 115 137 16 -5 19 -11 14 -32z"/>
<path d="M9110 2450 c-17 -11 -43 -295 -34 -375 4 -32 0 -73 -10 -112 -9 -33
-16 -82 -16 -108 0 -43 4 -52 40 -85 46 -42 47 -51 20 -111 -24 -54 -25 -97
-3 -144 14 -30 15 -44 6 -93 -15 -81 -11 -285 6 -306 14 -16 58 -21 77 -8 21
14 34 51 34 101 0 30 10 78 26 118 22 60 25 82 25 193 -1 128 11 185 22 113 4
-21 7 -62 7 -91 0 -48 4 -57 31 -80 17 -15 54 -61 81 -102 28 -41 64 -90 81
-107 26 -28 31 -42 34 -95 2 -35 13 -92 24 -128 10 -36 24 -84 29 -107 15 -61
54 -103 95 -103 68 0 77 68 25 182 -31 67 -32 75 -27 150 8 99 -4 156 -47 229
-26 44 -34 70 -38 121 -3 57 -9 72 -43 117 -22 28 -56 62 -77 76 -21 14 -38
30 -38 35 0 5 19 19 43 31 23 12 56 31 72 43 17 12 51 30 77 40 31 11 62 34
88 63 37 42 40 50 40 103 0 50 -5 65 -35 109 -19 28 -35 54 -35 57 0 4 -8 16
-17 26 -14 16 -15 23 -4 53 26 73 -17 115 -118 115 -38 1 -76 7 -91 15 -48 28
-74 19 -131 -42 -29 -32 -61 -73 -72 -91 -26 -44 -33 -31 -40 77 -8 97 -24
131 -65 131 -15 0 -34 -4 -42 -10z m61 -32 c0 -2 5 -43 10 -93 14 -144 22
-179 41 -183 12 -2 26 14 48 58 17 34 55 86 84 116 l53 54 48 -21 c37 -16 59
-20 95 -15 38 5 52 3 71 -13 22 -17 22 -21 10 -59 -13 -37 -12 -43 8 -70 11
-17 21 -33 21 -37 0 -4 14 -24 30 -46 21 -26 33 -53 37 -88 6 -50 5 -52 -38
-95 -24 -24 -60 -48 -79 -54 -19 -5 -58 -25 -86 -43 -28 -19 -65 -42 -83 -51
-41 -23 -44 -69 -4 -95 43 -29 104 -96 119 -129 7 -18 11 -46 7 -67 -3 -23 0
-45 10 -64 80 -148 77 -138 77 -260 0 -105 2 -119 30 -180 34 -74 39 -120 13
-130 -20 -8 -60 36 -69 75 -3 15 -16 63 -29 106 -13 44 -21 84 -19 88 3 5 3
32 -1 60 -5 36 -16 60 -40 87 -17 20 -54 70 -82 111 -28 41 -65 87 -82 103
-30 26 -31 30 -31 108 0 44 -5 89 -10 100 -15 27 -47 24 -67 -8 -15 -22 -17
-46 -15 -148 3 -107 0 -128 -19 -176 -13 -30 -25 -89 -29 -132 -6 -76 -19
-102 -45 -94 -14 5 -17 228 -4 294 9 45 7 58 -12 103 l-22 51 21 52 c33 79 30
120 -12 152 -44 34 -50 60 -31 143 9 37 15 100 14 142 -3 80 10 330 18 343 4
6 42 11 44 5z"/>
<path d="M9383 2179 c-17 -11 -41 -40 -52 -64 -12 -26 -33 -51 -50 -59 -46
-24 -56 -79 -20 -112 12 -10 37 -43 56 -71 40 -62 64 -68 114 -26 50 43 71 99
59 163 -11 58 -10 62 37 103 18 16 33 38 33 48 0 41 -121 54 -177 18z m103
-58 l-39 -39 7 -65 c8 -73 -2 -104 -49 -147 -26 -24 -28 -24 -39 -6 -6 11 -30
43 -53 72 -24 29 -40 59 -38 66 3 7 19 21 36 30 16 10 36 33 44 52 25 58 51
76 114 76 l55 0 -38 -39z"/>
<path d="M8583 2300 c-18 -4 -49 -20 -68 -35 -37 -27 -115 -120 -115 -136 0
-4 -22 -22 -48 -40 -62 -40 -88 -79 -106 -157 -8 -35 -21 -71 -29 -80 -26 -30
-47 -80 -47 -112 0 -17 14 -56 30 -87 29 -54 30 -60 30 -188 0 -153 10 -177
71 -179 50 -2 153 -55 173 -89 15 -27 19 -29 64 -23 51 7 117 14 144 15 32 2
129 87 197 174 109 138 115 188 37 302 -25 37 -46 76 -46 86 0 10 11 44 25 75
32 73 34 170 5 244 -11 28 -20 60 -20 71 0 32 -75 104 -138 132 -68 29 -115
38 -159 27z m142 -59 c73 -35 115 -77 125 -128 5 -21 15 -56 24 -78 22 -58 19
-117 -9 -187 -37 -90 -33 -119 21 -201 51 -75 58 -120 31 -174 -26 -48 -131
-171 -180 -209 -40 -31 -57 -38 -100 -39 -29 -1 -63 -7 -74 -14 -35 -18 -50
-13 -72 24 -11 19 -26 35 -33 35 -7 0 -34 11 -60 25 -26 14 -63 25 -83 25 -48
0 -55 21 -52 172 2 118 1 125 -25 170 -36 60 -36 103 1 159 16 24 34 68 40 98
15 72 41 112 91 140 22 12 52 41 66 62 91 144 170 177 289 120z"/>
<path d="M8499 2021 c-36 -36 -39 -43 -39 -96 0 -50 -4 -62 -31 -93 -49 -56
-62 -97 -55 -172 8 -76 27 -110 61 -110 26 0 85 -63 85 -92 0 -27 29 -50 54
-42 11 4 33 7 47 6 60 -4 78 52 44 134 -19 46 -19 92 0 137 8 20 15 52 15 71
0 30 -7 39 -50 70 -45 33 -50 40 -50 75 0 21 7 55 15 75 33 79 -30 104 -96 37z
m71 -5 c0 -2 -7 -20 -15 -39 -25 -61 -20 -104 18 -141 17 -17 43 -38 56 -47
l24 -15 -23 -73 c-21 -63 -22 -77 -12 -111 7 -22 17 -58 24 -80 7 -22 10 -41
7 -43 -2 -2 -23 -7 -47 -10 -40 -5 -43 -4 -56 26 -21 51 -65 97 -92 97 -31 0
-44 32 -44 109 0 48 5 65 29 99 16 22 34 43 40 47 6 3 11 33 11 65 0 48 4 64
26 89 21 26 54 42 54 27z"/>
<path d="M1990 2273 c-8 -3 -22 -12 -31 -20 -12 -10 -23 -11 -42 -4 -38 15
-60 -6 -59 -57 0 -23 4 -47 7 -53 4 -5 1 -40 -6 -76 l-13 -66 28 -22 c27 -21
27 -24 16 -66 -7 -24 -18 -55 -25 -69 -27 -55 -26 -85 6 -134 29 -44 31 -50
29 -143 -3 -116 11 -238 28 -255 8 -8 12 -51 12 -131 0 -118 0 -119 29 -148
33 -33 40 -34 65 -16 24 17 34 73 29 154 -4 58 -1 80 26 151 36 97 38 133 11
201 -21 55 -20 61 24 134 35 58 30 89 -20 133 -45 39 -53 86 -29 183 11 44 15
87 11 113 -3 24 -9 71 -12 106 -5 48 -11 66 -27 77 -22 16 -32 17 -57 8z m42
-72 c-1 -19 5 -57 14 -84 16 -47 15 -55 -1 -127 -11 -49 -16 -99 -13 -136 4
-52 9 -61 41 -88 45 -38 46 -60 6 -125 -34 -55 -35 -72 -3 -154 l19 -48 -33
-93 c-27 -78 -32 -107 -32 -183 0 -98 -5 -123 -24 -123 -24 0 -36 52 -36 156
0 78 -4 113 -16 137 -13 25 -17 64 -18 187 -2 153 -2 157 -29 191 -33 44 -34
64 -2 139 32 76 32 113 0 142 -23 21 -24 26 -14 62 6 23 8 66 4 102 l-6 63 33
-5 c21 -4 40 0 53 10 11 9 29 15 40 13 16 -2 19 -8 17 -36z"/>
<path d="M5817 2269 c-24 -14 -77 -122 -77 -157 0 -16 -7 -49 -15 -72 -8 -23
-15 -54 -15 -68 0 -13 -11 -50 -24 -81 -14 -31 -30 -82 -36 -114 -10 -47 -16
-60 -40 -72 -16 -8 -64 -50 -107 -92 -65 -64 -82 -87 -91 -126 -7 -26 -17 -47
-22 -47 -6 0 -10 1 -10 3 0 1 7 38 16 82 8 44 21 126 29 182 8 56 18 119 24
140 16 56 14 135 -5 161 -8 12 -26 22 -39 22 -34 0 -68 -64 -144 -271 l-17
-47 -20 37 c-15 28 -26 37 -51 39 -31 3 -34 7 -48 60 -23 85 -46 125 -79 137
-24 8 -31 6 -46 -13 -16 -19 -19 -43 -19 -173 -1 -132 -4 -156 -22 -192 -20
-39 -22 -40 -35 -22 -8 11 -19 35 -23 55 -34 136 -30 118 -65 311 -9 48 -16
110 -16 138 0 61 -32 104 -70 94 -29 -8 -67 -67 -80 -127 -15 -67 -27 -86 -54
-86 -33 0 -52 -26 -87 -116 -29 -76 -30 -81 -18 -142 11 -55 11 -72 -5 -130
-10 -37 -33 -99 -52 -139 -36 -78 -42 -123 -19 -163 8 -14 14 -49 15 -77 0
-44 4 -55 24 -68 31 -20 53 -11 75 34 10 20 26 50 35 67 13 25 14 38 6 59 -9
24 -7 34 14 64 14 20 28 50 31 66 8 38 36 105 44 105 3 0 19 -10 34 -23 22
-17 35 -45 57 -117 32 -107 87 -229 107 -237 26 -10 61 7 72 35 9 21 9 50 2
113 -6 46 -11 99 -11 119 l1 35 19 -24 c14 -17 20 -38 20 -76 0 -46 4 -57 26
-74 34 -27 40 -26 73 7 23 23 29 38 34 100 4 48 1 87 -8 117 -36 121 84 -28
158 -197 14 -31 34 -61 45 -67 29 -16 58 10 66 61 l7 43 14 -39 c18 -52 41
-74 111 -102 108 -44 147 -40 195 18 l26 31 7 -39 c10 -51 32 -87 66 -108 37
-21 43 -21 80 11 31 26 32 29 28 88 -3 34 -17 89 -33 125 -25 57 -28 81 -32
199 -5 127 -3 141 28 262 32 125 33 129 16 164 -22 47 -21 89 3 167 24 76 25
121 4 142 -18 18 -51 20 -77 5z m60 -51 c-3 -13 -15 -61 -27 -107 -23 -85 -22
-112 1 -169 12 -30 11 -44 -16 -145 -27 -103 -29 -124 -26 -255 2 -131 5 -150
31 -215 39 -101 47 -153 24 -178 -9 -10 -22 -19 -29 -19 -24 0 -55 47 -65 100
-13 67 -26 100 -40 100 -5 0 -19 -19 -31 -42 -45 -89 -74 -97 -182 -48 -77 35
-97 59 -97 118 0 83 34 156 106 227 36 36 83 76 104 90 35 22 40 31 55 96 8
39 22 83 29 98 17 33 56 187 56 220 0 14 13 54 30 89 25 53 33 62 56 62 22 0
26 -4 21 -22z m-1101 -80 c4 -6 11 -48 15 -92 10 -101 36 -272 43 -285 3 -5
13 -42 21 -82 9 -41 23 -85 32 -99 13 -19 19 -64 25 -199 4 -96 5 -178 2 -183
-20 -32 -68 57 -115 216 -18 63 -31 86 -63 117 -22 22 -45 39 -51 39 -28 0
-85 -92 -85 -138 0 -10 -12 -34 -26 -53 -21 -28 -25 -41 -20 -74 4 -31 -1 -52
-22 -92 -15 -29 -30 -53 -34 -53 -5 0 -8 18 -8 39 0 22 -9 64 -21 94 l-21 55
35 74 c19 40 45 106 57 147 20 67 21 79 9 138 -12 59 -11 68 10 126 29 82 47
107 75 107 33 0 52 27 67 92 19 88 55 139 75 106z m654 -197 c0 -14 -9 -64
-20 -111 -11 -47 -20 -106 -20 -132 0 -26 -5 -59 -11 -75 -15 -39 -27 -130
-32 -241 -5 -119 -18 -134 -51 -59 -36 81 -105 198 -138 230 -15 15 -35 41
-45 57 -20 34 -26 36 -43 15 -9 -11 -10 -32 -5 -73 14 -114 12 -213 -6 -236
-26 -32 -49 -6 -49 55 0 31 -7 60 -20 81 -27 44 -25 93 6 153 22 43 25 58 20
108 -9 87 4 237 20 237 18 0 42 -48 50 -98 10 -64 38 -102 74 -102 20 0 33 -6
37 -17 21 -63 54 -123 67 -123 12 0 16 12 16 53 1 28 7 68 15 87 7 19 25 64
38 100 14 36 35 85 48 109 21 40 23 42 36 25 7 -10 13 -29 13 -43z"/>
<path d="M5634 1568 c-16 -13 -42 -32 -57 -43 -31 -21 -57 -80 -57 -128 0 -35
49 -87 81 -87 24 0 104 79 120 118 14 37 11 115 -7 140 -19 28 -44 28 -80 0z
m62 -43 c10 -41 -3 -83 -42 -131 -41 -49 -66 -55 -89 -20 -24 37 -1 101 47
132 20 13 39 28 43 34 12 19 35 10 41 -15z"/>
<path d="M4685 1900 c-3 -5 -12 -29 -19 -52 -8 -24 -24 -66 -36 -94 -16 -35
-21 -60 -16 -79 6 -25 10 -27 43 -22 24 4 43 1 60 -10 22 -14 26 -15 40 -1 17
18 18 29 8 148 -8 88 -23 120 -56 120 -10 0 -21 -4 -24 -10z m44 -88 c-1 -26
2 -69 6 -97 8 -46 7 -49 -9 -36 -9 8 -31 14 -47 13 -27 -1 -30 2 -26 21 12 48
61 156 69 151 5 -3 8 -27 7 -52z"/>
<path d="M2693 2240 c-35 -8 -118 -54 -129 -72 -4 -6 -10 -25 -13 -41 -4 -17
-13 -34 -21 -38 -8 -4 -40 -19 -70 -33 -63 -29 -84 -58 -93 -129 -4 -26 -16
-65 -27 -87 -11 -22 -23 -61 -27 -87 -6 -53 -23 -91 -61 -141 -35 -47 -38
-122 -4 -137 14 -6 20 -15 16 -25 -4 -8 -9 -36 -11 -62 -7 -64 6 -78 72 -78
58 0 65 -7 58 -56 -4 -24 1 -38 25 -65 20 -23 32 -50 37 -84 8 -59 18 -80 41
-89 29 -11 65 23 96 92 17 37 39 80 50 95 18 25 25 28 57 22 31 -5 44 -1 86
30 45 32 56 35 118 35 64 0 70 2 98 33 43 46 57 99 35 132 -21 32 -43 32 -86
0 -19 -14 -38 -25 -44 -25 -5 0 -41 16 -79 36 -60 31 -73 34 -92 24 -14 -7
-38 -10 -61 -6 -33 6 -46 2 -85 -24 -87 -57 -103 -13 -38 106 46 83 46 107 3
148 -38 34 -27 64 48 128 34 29 84 74 112 99 46 43 49 49 39 72 -11 24 -10 26
19 36 17 6 49 11 72 11 77 0 117 12 152 45 42 40 45 77 9 101 -21 14 -40 15
-105 10 -72 -7 -83 -5 -106 13 -28 22 -40 24 -91 11z m92 -51 c25 -21 30 -21
94 -9 52 10 73 10 89 1 29 -15 28 -24 -8 -54 -24 -20 -45 -27 -107 -32 -95 -8
-135 -20 -158 -45 -17 -19 -17 -21 -1 -39 16 -18 15 -21 -46 -72 -35 -30 -84
-75 -110 -101 -41 -41 -48 -54 -48 -88 0 -31 5 -43 25 -56 35 -23 32 -50 -15
-136 -46 -84 -47 -96 -19 -132 26 -33 51 -33 107 0 33 19 52 24 75 20 16 -3
45 -1 63 6 30 10 37 9 75 -16 58 -39 109 -45 147 -17 17 11 35 21 41 21 17 0
13 -42 -5 -70 -28 -42 -45 -50 -109 -50 -52 0 -69 -5 -110 -32 -35 -23 -58
-31 -84 -30 -47 3 -71 -22 -126 -126 -56 -105 -63 -105 -80 0 -3 21 -17 51
-30 67 -17 20 -25 41 -25 68 0 54 -26 76 -88 77 -40 1 -47 4 -50 23 -2 12 9
51 23 88 30 73 28 103 -4 85 -11 -5 -23 -15 -26 -20 -3 -6 -10 -10 -16 -10
-19 0 -8 40 27 90 44 64 64 110 64 147 0 15 11 55 25 88 13 33 25 76 25 96 0
50 30 84 93 105 61 19 87 39 87 66 0 34 19 57 68 83 59 30 101 31 137 4z"/>
</g>
</svg>
